<svg xmlns="http://www.w3.org/2000/svg" viewBox="0 0 400 120" fill="none">
  <circle cx="60" cy="60" r="34" stroke="white" stroke-width="3" fill="none" opacity="0.9"/>
  <rect x="26" y="48" width="8" height="20" rx="4" fill="white" opacity="0.9"/>
  <rect x="86" y="48" width="8" height="20" rx="4" fill="white" opacity="0.9"/>
  <path d="M26 52 Q26 30 46 20" stroke="white" stroke-width="3" fill="none" opacity="0.9"/>
  <path d="M94 52 Q94 30 74 20" stroke="white" stroke-width="3" fill="none" opacity="0.9"/>
  <ellipse cx="60" cy="72" rx="10" ry="6" fill="white" opacity="0.9"/>
  <path d="M50 72 Q50 80 60 82 Q70 80 70 72" fill="white" opacity="0.9"/>
  <circle cx="54" cy="56" r="16" fill="#FF6600" opacity="0.3"/>
  <path d="M48 62 Q50 50 54 48 Q58 50 60 62 L58 66 L50 66 Z" fill="#FF6600"/>
  <path d="M50 66 L48 72 L60 72 L58 66" fill="#FF6600"/>
  <line x1="52" y1="48" x2="50" y2="44" stroke="#FF6600" stroke-width="2.5" stroke-linecap="round"/>
  <line x1="56" y1="48" x2="58" y2="44" stroke="#FF6600" stroke-width="2.5" stroke-linecap="round"/>
  <rect x="52" y="58" width="4" height="12" rx="1" fill="#333" transform="rotate(-20, 54, 64)"/>
  <path d="M50 70 Q54 74 58 70" stroke="#333" stroke-width="2" fill="none" transform="rotate(-20, 54, 64)"/>
  <circle cx="140" cy="38" r="9" stroke="#FF6600" stroke-width="2" fill="none"/>
  <path d="M146 44 L156 54" stroke="#FF6600" stroke-width="2.5" stroke-linecap="round"/>
  <line x1="152" y1="50" x2="158" y2="48" stroke="#FF6600" stroke-width="2" stroke-linecap="round"/>
  <line x1="152" y1="50" x2="150" y2="56" stroke="#FF6600" stroke-width="2" stroke-linecap="round"/>
  <text x="180" y="48" font-family="Inter, Arial, sans-serif" font-size="36" font-weight="800" fill="white">Service</text>
  <text x="180" y="88" font-family="Inter, Arial, sans-serif" font-size="36" font-weight="800" fill="#FF6600">Provider</text>
</svg>
